<?xml version="1.0" encoding="utf-8"?>
<svg viewBox="172.5988 272.0834 821.1465 713.9166" width="821.147pt" height="713.917pt" xmlns="http://www.w3.org/2000/svg">
  <path d="M3788 9123 c-15 -4 -70 -91 -172 -273 -20 -36 -47 -83 -61 -105 -13&#10;-22 -36 -62 -51 -90 -15 -27 -45 -79 -67 -115 -22 -36 -51 -85 -65 -110 -13&#10;-25 -28 -49 -32 -55 -5 -5 -26 -44 -47 -85 -22 -41 -52 -95 -68 -120 -16 -25&#10;-40 -65 -53 -90 -13 -25 -31 -56 -40 -70 -18 -27 -51 -86 -77 -135 -9 -16 -25&#10;-43 -35 -60 -11 -16 -27 -43 -35 -60 -8 -16 -21 -39 -28 -50 -66 -106 -99&#10;-165 -90 -165 3 0 -2 -10 -13 -22 -24 -27 -49 -66 -81 -126 -55 -102 -87 -159&#10;-104 -181 -11 -13 -19 -27 -19 -32 0 -4 -26 -52 -58 -106 -92 -155 -168 -285&#10;-191 -328 -12 -22 -27 -49 -34 -60 -32 -52 -74 -123 -85 -145 -6 -14 -16 -32&#10;-22 -40 -5 -8 -53 -89 -105 -180 -53 -91 -100 -172 -105 -180 -6 -8 -14 -25&#10;-20 -37 -5 -12 -31 -57 -58 -100 -26 -43 -51 -85 -55 -93 -4 -8 -21 -37 -38&#10;-65 -16 -27 -37 -63 -45 -80 -8 -16 -21 -39 -27 -50 -81 -135 -89 -155 -76&#10;-188 7 -18 23 -45 34 -62 12 -16 42 -65 66 -108 24 -43 51 -91 59 -105 49 -88&#10;105 -183 131 -222 16 -25 32 -52 36 -60 3 -8 67 -121 141 -250 75 -129 145&#10;-252 156 -272 12 -20 43 -74 69 -120 27 -46 89 -153 137 -238 49 -85 94 -160&#10;99 -167 6 -7 11 -14 11 -17 0 -3 41 -76 92 -163 50 -87 99 -171 108 -188 9&#10;-16 28 -49 43 -73 15 -24 32 -53 38 -65 5 -12 15 -31 22 -42 7 -11 36 -63 66&#10;-115 29 -52 64 -109 77 -127 13 -17 24 -36 24 -42 0 -6 16 -35 35 -65 19 -30&#10;53 -90 76 -133 23 -43 46 -80 50 -83 4 -3 13 -17 19 -30 6 -14 20 -42 33 -63&#10;67 -113 174 -299 200 -347 16 -30 43 -74 58 -98 16 -24 29 -45 29 -48 0 -10&#10;125 -219 135 -226 5 -4 931 -8 2057 -8 l2047 0 21 22 c11 12 20 26 20 30 0 5&#10;12 27 26 49 14 23 36 61 50 85 56 101 73 132 104 184 73 123 243 418 253 440&#10;4 8 16 29 27 45 11 17 31 53 46 80 15 28 59 104 99 170 39 66 85 143 100 170&#10;16 28 46 82 68 120 22 39 56 99 76 135 20 36 54 92 75 125 21 32 52 84 68 115&#10;30 58 61 111 95 170 77 129 153 267 153 276 0 6 7 18 17 25 9 8 22 28 30 44 8&#10;17 29 55 47 85 18 30 50 84 71 120 20 36 45 79 55 95 44 75 90 157 90 160 0 2&#10;14 24 30 48 17 25 30 47 30 50 0 3 20 40 45 81 25 42 45 80 45 85 0 5 7 11 15&#10;15 8 3 15 10 15 17 0 11 159 296 215 384 17 28 42 71 54 96 22 41 23 48 10 71&#10;-8 14 -28 52 -45 84 -37 70 -99 174 -114 191 -5 7 -10 17 -10 22 0 6 -13 29&#10;-29 53 -15 24 -41 66 -56 93 -50 91 -78 140 -100 175 -20 32 -46 77 -130 225&#10;-16 29 -63 109 -102 178 -40 69 -73 128 -73 132 0 4 -14 27 -30 52 -17 24 -40&#10;63 -51 86 -12 23 -27 49 -34 57 -7 8 -25 38 -40 65 -14 28 -34 64 -44 80 -10&#10;17 -53 91 -96 165 -43 74 -86 147 -96 162 -11 14 -19 28 -19 31 0 3 -32 61&#10;-71 129 -39 67 -83 143 -97 168 -14 25 -33 56 -44 69 -10 13 -18 28 -18 32 0&#10;5 -17 37 -38 71 -21 35 -61 103 -88 151 -27 49 -53 96 -59 105 -5 9 -34 60&#10;-64 112 -182 318 -336 484 -598 644 -48 29 -99 57 -113 61 -14 4 -35 13 -47&#10;21 -71 45 -346 114 -453 114 -21 0 -42 4 -45 10 -6 10 -3300 13 -3337 3z&#10;m3377 -477 c273 -43 526 -190 675 -391 34 -46 144 -225 163 -265 4 -8 16 -28&#10;27 -45 21 -33 51 -85 106 -185 19 -36 46 -81 58 -100 63 -96 76 -140 42 -140&#10;-6 0 -802 0 -1768 0 l-1757 0 -24 -32 c-13 -18 -42 -64 -63 -103 -22 -38 -44&#10;-79 -51 -90 -6 -11 -19 -33 -27 -50 -9 -16 -25 -43 -36 -60 -11 -16 -31 -52&#10;-46 -80 -15 -27 -42 -74 -60 -103 -19 -29 -34 -54 -34 -56 0 -3 -19 -37 -43&#10;-78 -24 -40 -46 -80 -50 -88 -4 -8 -17 -31 -28 -50 -12 -19 -33 -55 -47 -80&#10;-14 -25 -60 -103 -102 -175 -42 -71 -88 -150 -102 -175 -34 -62 -57 -101 -113&#10;-195 -56 -94 -80 -135 -110 -190 -12 -22 -54 -96 -94 -165 -40 -69 -96 -165&#10;-123 -215 -28 -49 -54 -94 -58 -100 -8 -11 -147 -251 -188 -325 -13 -25 -46&#10;-81 -72 -125 -26 -44 -64 -109 -84 -145 -20 -36 -47 -83 -61 -105 -14 -22 -32&#10;-53 -40 -70 -9 -16 -24 -43 -35 -60 -10 -16 -34 -59 -53 -95 -24 -44 -42 -66&#10;-56 -68 -12 -2 -21 1 -21 7 0 6 -40 77 -88 158 -48 81 -104 175 -122 208 -19&#10;33 -43 74 -52 90 -10 17 -31 55 -48 85 -17 30 -34 62 -39 70 -39 63 -131 222&#10;-131 226 0 3 -13 24 -29 47 -15 23 -43 69 -60 102 -18 33 -39 72 -48 86 -18&#10;28 -13 68 12 93 8 8 15 17 15 19 0 7 127 233 155 277 12 19 36 60 52 90 16 30&#10;41 73 55 95 21 33 163 277 242 416 12 20 35 61 52 90 17 30 46 79 63 109 17&#10;30 36 62 41 70 9 14 95 166 142 250 11 19 24 40 28 45 4 6 24 42 45 80 21 39&#10;43 77 50 85 14 19 115 196 115 203 0 3 16 29 35 58 19 30 35 57 35 62 0 4 17&#10;36 38 70 21 34 64 105 94 157 30 52 78 135 107 183 28 49 51 95 51 103 0 8 4&#10;14 10 14 5 0 18 17 28 38 10 20 54 98 97 172 43 74 103 178 133 230 29 52 61&#10;103 69 113 15 16 101 17 1527 17 1248 0 1527 -3 1601 -14z m1380 -1604 c10 -7&#10;75 -109 75 -118 0 -2 29 -52 64 -111 67 -114 109 -188 136 -238 8 -17 28 -51&#10;44 -75 15 -25 55 -92 88 -150 33 -58 85 -148 116 -200 31 -52 62 -104 68 -115&#10;5 -11 35 -63 66 -117 90 -155 325 -136 -1739 -137 l-1766 -1 -16 -22 c-9 -12&#10;-29 -46 -46 -75 -16 -29 -52 -90 -80 -135 -27 -46 -59 -101 -70 -123 -11 -22&#10;-22 -42 -25 -45 -6 -6 -21 -32 -63 -110 -17 -30 -43 -74 -59 -97 -15 -23 -28&#10;-44 -28 -47 0 -3 -38 -71 -85 -151 -47 -79 -85 -147 -85 -151 0 -3 -14 -25&#10;-31 -50 -16 -24 -38 -61 -47 -82 -9 -20 -27 -51 -38 -67 -12 -17 -34 -52 -48&#10;-80 -49 -90 -86 -155 -213 -370 -32 -55 -64 -111 -71 -125 -7 -14 -29 -52 -48&#10;-85 -20 -33 -50 -85 -67 -115 -16 -30 -42 -73 -56 -95 -14 -22 -33 -53 -42&#10;-70 -9 -16 -26 -46 -38 -65 -12 -19 -28 -48 -36 -65 -21 -39 -54 -99 -142&#10;-248 -135 -231 -217 -372 -268 -464 -59 -105 -72 -123 -90 -123 -10 0 -145&#10;208 -145 224 0 2 -22 42 -50 89 -27 47 -50 87 -50 90 0 3 -18 33 -40 66 -22&#10;33 -40 63 -40 66 0 3 -34 61 -75 130 -41 68 -75 128 -75 132 0 5 -22 44 -50&#10;88 -27 44 -50 84 -50 89 0 5 -6 17 -14 25 -8 9 -33 52 -56 96 -24 44 -51 92&#10;-62 107 -23 34 -23 36 12 82 17 22 30 43 30 47 0 4 34 65 77 136 85 143 100&#10;170 151 263 20 36 48 83 62 105 15 22 37 58 49 80 12 22 33 58 46 80 23 38 59&#10;103 126 225 38 69 134 233 165 282 13 21 24 41 24 44 0 4 18 36 41 71 22 35&#10;59 99 81 141 23 42 53 95 68 117 15 22 30 47 34 55 4 8 12 24 19 35 36 60 117&#10;206 117 212 0 3 6 14 14 22 7 9 25 36 38 61 14 25 34 59 44 77 43 71 89 151&#10;117 203 17 30 37 66 47 80 9 14 21 36 28 50 7 14 26 45 42 70 16 25 38 63 49&#10;85 11 22 31 58 45 80 41 66 58 103 51 114 -3 6 0 9 8 5 9 -3 20 10 32 37 11&#10;23 33 63 49 88 16 25 43 71 59 101 16 30 34 61 39 68 8 9 379 12 1792 12 979&#10;0 1786 -4 1791 -8z m693 -1724 c19 -19 15 -31 -37 -120 -123 -210 -141 -243&#10;-141 -254 0 -6 -9 -19 -20 -29 -11 -10 -20 -22 -20 -27 0 -5 -11 -27 -26 -49&#10;-28 -45 -53 -88 -96 -169 -17 -30 -34 -59 -38 -65 -5 -5 -23 -37 -41 -70 -18&#10;-33 -44 -78 -58 -100 -14 -22 -39 -65 -55 -95 -16 -30 -41 -73 -55 -95 -14&#10;-22 -32 -53 -41 -70 -18 -33 -53 -93 -81 -140 -10 -16 -32 -57 -49 -90 -18&#10;-33 -43 -74 -56 -92 -13 -17 -24 -37 -24 -44 0 -7 -10 -26 -23 -43 -13 -17&#10;-49 -78 -82 -136 -32 -58 -73 -127 -90 -155 -17 -27 -35 -58 -38 -67 -4 -10&#10;-22 -43 -42 -73 -19 -31 -35 -60 -35 -65 0 -6 -4 -10 -10 -10 -5 0 -10 -4 -10&#10;-10 0 -8 -90 -172 -120 -220 -6 -8 -22 -37 -36 -65 -15 -27 -41 -72 -58 -100&#10;-18 -27 -40 -67 -49 -87 -10 -21 -22 -38 -26 -38 -5 0 -15 -14 -22 -32 -21&#10;-51 -127 -230 -141 -240 -7 -4 -745 -8 -1639 -8 -1770 0 -1668 -3 -1637 53 22&#10;41 97 169 123 212 14 22 29 49 35 60 6 11 20 37 33 57 43 72 111 194 134 241&#10;13 26 28 47 33 47 6 0 10 6 11 13 0 6 35 71 77 144 42 73 122 210 176 305 55&#10;95 118 205 141 243 23 39 86 147 139 240 53 94 101 177 106 185 5 8 38 65 73&#10;125 35 61 88 153 119 205 30 52 98 169 150 260 52 91 121 210 153 265 32 55&#10;66 114 74 130 9 17 23 40 32 52 l16 23 1619 3 c890 1 1624 3 1630 5 5 1 15 -3&#10;22 -10z" style="fill: rgb(61, 129, 224);" transform="matrix(0.10000000149011612, 0, 0, -0.10000000149011612, -1.4210854715202004e-14, 1185)"/>
</svg>