<?xml version="1.0" encoding="utf-8"?>
<svg viewBox="2313.878 4017.251 4984.451 1222.505" xmlns="http://www.w3.org/2000/svg">
  <defs>
    <radialGradient gradientUnits="userSpaceOnUse" cx="30750.165" cy="56666.778" r="6467.852" id="gradient-1" gradientTransform="matrix(1.422984, -2.540507, 2.489865, 1.394617, -155381.668222, 48717.171704)">
      <stop offset="0" style="stop-color: rgb(23.922% 50.588% 87.843%)"/>
      <stop offset="1" style="stop-color: rgb(0% 30.201% 61.111%)"/>
    </radialGradient>
    <linearGradient gradientUnits="userSpaceOnUse" x1="61111.281" y1="44580.887" x2="61111.281" y2="50500" id="gradient-9" gradientTransform="matrix(0.368259, -0.929723, 0.621338, 0.24611, 9631.74657, 92632.372588)">
      <stop offset="0" style="stop-color: rgb(23.922% 50.588% 87.843%)"/>
      <stop offset="1" style="stop-color: rgb(0% 30.201% 61.111%)"/>
    </linearGradient>
    <linearGradient gradientUnits="userSpaceOnUse" x1="65923.125" y1="44580.887" x2="65923.125" y2="50500" id="gradient-10" gradientTransform="matrix(0.605285, -0.796008, 0.563348, 0.42837, -1839.764017, 77517.882514)">
      <stop offset="0" style="stop-color: rgb(23.922% 50.588% 87.843%)"/>
      <stop offset="1" style="stop-color: rgb(0% 30.201% 61.111%)"/>
    </linearGradient>
    <linearGradient gradientUnits="userSpaceOnUse" x1="40562.32" y1="52392.729" x2="40562.32" y2="57952.729" id="gradient-11" gradientTransform="matrix(1.102213, 0.102335, -0.15623, 1.625654, 3964.8675, -42008.59375)">
      <stop offset="0" style="stop-color: rgb(23.922% 50.588% 87.843%)"/>
      <stop offset="1" style="stop-color: rgb(0% 30.201% 61.111%)"/>
    </linearGradient>
    <linearGradient gradientUnits="userSpaceOnUse" x1="45290" y1="44700" x2="45290" y2="50260" id="gradient-12" gradientTransform="matrix(1.005961, -0.119651, 0.160643, 1.612992, -7524.851074, -19448.90625)">
      <stop offset="0" style="stop-color: rgb(23.922% 50.588% 87.843%)"/>
      <stop offset="1" style="stop-color: rgb(0% 30.201% 61.111%)"/>
    </linearGradient>
    <linearGradient gradientUnits="userSpaceOnUse" x1="51856.689" y1="44700" x2="51856.689" y2="50261" id="gradient-13" gradientTransform="matrix(-0.10859, -0.994088, 0.855345, -0.093432, 19400.896867, 103221.600556)">
      <stop offset="0" style="stop-color: rgb(23.922% 50.588% 87.843%)"/>
      <stop offset="1" style="stop-color: rgb(0% 30.201% 61.111%)"/>
    </linearGradient>
    <linearGradient gradientUnits="userSpaceOnUse" x1="56570" y1="44580.098" x2="56570" y2="48690" id="gradient-14" gradientTransform="matrix(0.428836, -0.903381, 1.503358, 0.713645, -36572.560978, 64458.49117)">
      <stop offset="0" style="stop-color: rgb(23.922% 50.588% 87.843%)"/>
      <stop offset="1" style="stop-color: rgb(0% 30.201% 61.111%)"/>
    </linearGradient>
    <linearGradient gradientUnits="userSpaceOnUse" x1="70583.559" y1="42911.691" x2="70583.559" y2="48690" id="gradient-15" gradientTransform="matrix(0.418995, -0.907989, 1.026853, 0.473845, -8105.3568, 86765.375171)">
      <stop offset="0" style="stop-color: rgb(23.922% 50.588% 87.843%)"/>
      <stop offset="1" style="stop-color: rgb(0% 30.201% 61.111%)"/>
    </linearGradient>
  </defs>
  <g transform="matrix(0.1000000014901161, 0, 0, -0.1000000014901161, 0, 9375.000139698386)" fill="#000000" stroke="none">
    <path d="M26515 53162 c-6 -4 -16 -18 -22 -32 -14 -27 -42 -77 -88 -155 -39&#10;-66 -51 -85 -110 -189 -27 -49 -62 -109 -77 -135 -15 -25 -34 -60 -42 -78 -9&#10;-17 -19 -33 -23 -35 -8 -3 -29 -39 -73 -123 -24 -45 -52 -95 -124 -217 -27&#10;-46 -59 -101 -71 -123 -48 -86 -97 -170 -105 -180 -4 -5 -20 -32 -35 -60 -15&#10;-27 -44 -78 -64 -113 -41 -72 -75 -130 -111 -192 -14 -24 -37 -64 -52 -89 -14&#10;-25 -35 -62 -46 -81 -10 -19 -43 -75 -72 -125 -29 -49 -60 -103 -68 -120 -9&#10;-16 -28 -49 -44 -72 -15 -23 -28 -44 -28 -47 0 -3 -18 -35 -40 -71 -22 -36&#10;-40 -68 -40 -70 0 -3 -12 -24 -27 -48 -29 -45 -58 -97 -92 -162 -12 -22 -34&#10;-60 -51 -85 -16 -25 -36 -58 -45 -75 -9 -16 -29 -52 -45 -80 -16 -27 -39 -68&#10;-50 -90 -12 -22 -34 -60 -50 -85 -16 -25 -38 -61 -48 -80 -10 -19 -59 -104&#10;-108 -188 -136 -234 -142 -245 -159 -280 -9 -18 -30 -54 -48 -80 -18 -26 -40&#10;-63 -50 -82 -10 -19 -31 -57 -47 -85 -16 -27 -38 -69 -50 -92 -11 -23 -24 -43&#10;-28 -45 -4 -2 -16 -19 -26 -38 -11 -19 -30 -54 -43 -77 -13 -24 -34 -62 -47&#10;-86 -13 -24 -36 -62 -50 -85 -14 -23 -26 -44 -26 -47 0 -2 -15 -28 -34 -57&#10;-18 -29 -45 -75 -60 -103 -14 -27 -40 -72 -56 -100 -17 -27 -36 -62 -42 -77&#10;-7 -16 -16 -28 -20 -28 -4 0 -16 -19 -28 -42 -21 -45 -42 -82 -124 -221 -50&#10;-84 -77 -132 -122 -214 -14 -26 -34 -59 -43 -73 -10 -14 -32 -52 -51 -85 -57&#10;-102 -77 -138 -114 -200 -19 -33 -43 -76 -53 -95 -10 -19 -21 -37 -24 -40 -31&#10;-26 -33 -87 -5 -120 8 -8 27 -40 44 -70 16 -30 47 -84 68 -120 20 -36 53 -93&#10;73 -128 20 -35 47 -83 61 -106 146 -250 167 -286 190 -333 11 -23 24 -43 28&#10;-45 4 -2 15 -19 25 -38 10 -19 28 -53 41 -75 13 -22 58 -101 101 -175 42 -74&#10;81 -139 85 -145 4 -5 20 -31 34 -57 52 -95 100 -180 148 -262 49 -82 78 -132&#10;95 -166 10 -19 32 -55 48 -80 35 -54 69 -112 93 -160 9 -19 49 -89 88 -155 39&#10;-66 84 -142 99 -170 16 -27 40 -68 53 -90 13 -22 28 -52 35 -67 6 -16 15 -28&#10;19 -28 4 0 16 -19 28 -42 11 -24 34 -65 50 -93 16 -27 37 -66 47 -85 10 -19&#10;32 -56 50 -82 18 -26 39 -62 48 -80 9 -18 28 -54 43 -79 15 -26 49 -84 76&#10;-130 27 -46 60 -104 73 -129 14 -25 28 -49 33 -55 4 -5 20 -32 35 -60 16 -27&#10;39 -68 51 -90 13 -22 35 -60 49 -85 14 -25 39 -67 55 -95 16 -27 36 -63 45&#10;-80 9 -16 29 -50 45 -75 16 -25 38 -63 50 -85 32 -61 56 -103 67 -117 6 -7 27&#10;-44 48 -83 21 -38 48 -86 61 -105 13 -19 24 -39 24 -43 0 -5 9 -21 19 -36 11&#10;-14 30 -47 44 -71 13 -25 57 -102 98 -172 92 -159 123 -213 146 -258 10 -19&#10;21 -36 25 -38 4 -2 17 -22 28 -45 11 -23 31 -58 43 -78 12 -21 45 -76 72 -125&#10;64 -112 75 -131 102 -174 11 -19 32 -55 46 -80 13 -25 46 -83 73 -129 27 -46&#10;60 -104 74 -130 l25 -46 3238 -3 3239 -2 19 22 c10 13 21 32 25 43 4 11 25 49&#10;48 85 47 75 68 111 94 160 9 19 30 55 46 79 15 24 39 64 52 88 59 107 93 166&#10;194 338 54 93 89 155 121 214 10 19 22 37 26 40 5 3 16 22 26 41 9 19 31 58&#10;47 85 16 28 36 64 44 82 9 17 29 51 45 75 16 24 40 63 53 88 35 65 49 89 85&#10;147 18 28 33 55 33 60 0 5 11 24 23 43 13 19 38 60 55 90 16 30 46 82 66 115&#10;20 33 45 78 56 100 12 22 34 60 50 85 16 25 38 63 50 85 11 22 32 58 45 80 13&#10;22 34 58 46 80 12 22 24 42 28 45 3 3 14 21 23 40 10 19 30 56 45 82 16 26 66&#10;114 113 194 47 81 97 167 112 193 15 25 34 60 43 76 8 17 40 71 70 120 30 50&#10;64 108 75 130 12 22 33 61 48 86 15 25 37 63 50 85 12 21 33 57 46 79 13 22&#10;35 61 49 88 15 26 43 72 62 102 19 31 35 58 35 61 0 3 26 49 58 102 31 53 60&#10;104 64 113 3 9 23 42 44 75 21 32 47 75 57 94 10 19 31 58 47 85 16 28 36 65&#10;45 83 9 18 31 55 50 82 19 27 41 64 49 82 9 18 28 54 43 79 26 44 94 160 138&#10;239 11 19 30 51 42 70 11 19 34 58 49 85 15 28 36 66 46 85 11 19 32 55 48 80&#10;16 25 38 63 50 85 11 22 32 58 45 80 70 116 121 204 139 242 9 17 29 52 46 76&#10;16 25 30 52 30 61 0 16 -34 81 -79 151 -14 22 -34 56 -43 75 -10 19 -31 58&#10;-47 85 -16 28 -38 66 -48 85 -10 19 -32 56 -50 82 -18 26 -39 62 -48 80 -17&#10;34 -36 69 -119 210 -27 46 -60 103 -73 128 -14 25 -28 50 -33 55 -4 6 -22 37&#10;-40 70 -18 33 -41 74 -51 90 -10 17 -30 50 -44 75 -14 25 -39 68 -55 95 -17&#10;28 -37 64 -45 80 -9 17 -29 50 -45 75 -16 25 -38 63 -50 85 -23 43 -48 88&#10;-124 217 -27 46 -59 101 -71 123 -29 52 -79 139 -145 250 -29 50 -62 106 -72&#10;125 -11 19 -32 58 -48 85 -16 28 -37 66 -47 85 -10 19 -21 36 -25 38 -4 2 -17&#10;22 -28 45 -11 23 -31 58 -43 78 -27 45 -115 199 -142 249 -11 20 -25 43 -31&#10;51 -7 8 -25 39 -41 69 -43 79 -83 149 -110 192 -12 21 -23 40 -23 43 0 3 -12&#10;24 -27 48 -31 46 -63 103 -90 157 -10 19 -21 37 -24 40 -3 3 -15 20 -25 38&#10;-10 19 -31 55 -46 80 -15 26 -37 65 -48 87 -12 22 -34 60 -50 85 -16 25 -38&#10;61 -48 80 -33 61 -173 305 -182 315 -4 6 -20 31 -34 58 -14 26 -37 67 -51 92&#10;-14 25 -37 66 -51 92 -14 26 -41 70 -60 98 -19 29 -34 55 -34 58 0 3 -21 36&#10;-47 72 -27 37 -52 74 -58 83 -62 103 -443 482 -484 482 -6 0 -16 9 -23 20 -7&#10;11 -17 20 -22 20 -4 0 -29 15 -55 33 -25 19 -53 37 -61 41 -8 3 -35 19 -60 35&#10;-76 49 -308 161 -333 161 -6 0 -25 7 -42 16 -16 9 -60 25 -97 35 -37 10 -75&#10;22 -85 27 -10 5 -52 15 -93 22 -41 7 -80 17 -85 21 -6 4 -74 15 -152 23 -125&#10;14 -453 16 -2780 16 -1451 0 -2643 -4 -2648 -8z m5270 -772 c3 -5 22 -10 42&#10;-10 46 0 165 -20 178 -30 6 -4 37 -13 70 -20 33 -6 80 -21 105 -31 106 -47&#10;258 -123 298 -150 24 -16 45 -29 48 -29 8 0 89 -65 159 -128 67 -60 210 -216&#10;228 -249 7 -11 28 -45 48 -75 20 -29 62 -98 94 -153 32 -55 67 -116 79 -135&#10;12 -19 27 -46 34 -60 8 -14 25 -46 40 -71 25 -43 38 -65 102 -176 14 -24 47&#10;-80 74 -126 26 -45 60 -102 73 -127 24 -42 49 -86 81 -138 l13 -22 -2790 0&#10;-2791 0 -22 -42 c-13 -23 -35 -62 -50 -87 -14 -25 -35 -62 -45 -81 -11 -19&#10;-45 -79 -76 -132 -150 -259 -171 -295 -185 -323 -9 -16 -32 -55 -51 -85 -20&#10;-30 -44 -71 -54 -90 -10 -19 -31 -57 -47 -85 -16 -27 -37 -66 -47 -85 -10 -19&#10;-20 -37 -23 -40 -6 -5 -50 -80 -81 -135 -21 -39 -56 -99 -99 -172 -19 -32 -39&#10;-67 -45 -78 -7 -11 -31 -54 -55 -95 -24 -41 -52 -91 -62 -110 -10 -19 -32 -55&#10;-48 -80 -16 -25 -38 -63 -50 -85 -11 -22 -33 -62 -50 -90 -16 -27 -36 -63 -45&#10;-80 -9 -16 -29 -50 -45 -75 -17 -25 -39 -63 -50 -85 -11 -22 -32 -61 -47 -86&#10;-24 -39 -69 -118 -153 -264 -10 -16 -35 -59 -55 -95 -21 -36 -61 -105 -89&#10;-153 -28 -49 -61 -105 -73 -125 -12 -21 -32 -55 -43 -77 -12 -22 -34 -60 -50&#10;-85 -17 -25 -39 -63 -51 -85 -27 -54 -47 -88 -94 -165 -38 -62 -59 -100 -93&#10;-165 -8 -16 -23 -41 -33 -55 -9 -14 -28 -46 -42 -70 -13 -25 -46 -83 -73 -129&#10;-92 -157 -103 -176 -123 -216 -12 -22 -34 -60 -50 -85 -16 -25 -38 -61 -49&#10;-80 -40 -73 -71 -128 -122 -215 -29 -49 -64 -110 -78 -135 -13 -25 -28 -49&#10;-32 -55 -5 -5 -19 -30 -32 -55 -14 -25 -33 -61 -44 -80 -10 -19 -22 -36 -26&#10;-38 -5 -2 -8 -8 -8 -13 0 -5 -12 -28 -27 -52 -15 -23 -33 -54 -40 -69 -17 -40&#10;-41 -35 -64 15 -26 54 -58 111 -92 164 -15 24 -27 47 -27 53 0 5 -4 10 -8 10&#10;-4 0 -13 12 -19 28 -12 27 -68 128 -83 147 -4 6 -19 30 -32 55 -14 25 -49 86&#10;-78 135 -29 50 -62 106 -72 125 -19 34 -48 85 -98 169 -14 24 -36 63 -50 87&#10;-14 24 -58 101 -99 171 -41 70 -81 142 -89 158 -8 17 -21 37 -27 45 -7 8 -26&#10;40 -43 70 -68 126 -123 220 -132 225 -15 9 -12 43 7 71 9 14 23 39 32 55 9 16&#10;49 87 90 157 41 70 85 147 98 172 14 24 32 56 42 70 9 14 22 36 29 50 6 14 36&#10;66 67 115 30 50 64 108 75 130 12 22 33 61 48 86 15 25 37 63 50 85 12 21 34&#10;57 47 79 13 22 35 60 48 85 13 25 48 86 77 135 66 111 116 198 145 250 12 22&#10;44 78 71 123 27 46 59 103 72 125 30 53 65 115 122 211 64 108 96 166 117 206&#10;10 19 30 53 44 75 14 22 37 60 51 85 14 25 65 114 114 198 116 200 140 242&#10;156 272 7 14 15 27 19 30 3 3 17 25 30 49 29 53 61 110 99 176 16 28 39 69 51&#10;93 13 23 27 42 31 42 4 0 8 5 8 10 0 6 19 43 42 83 22 40 52 92 65 117 14 25&#10;29 50 33 55 8 11 102 172 139 240 12 22 33 58 46 80 13 22 32 56 42 75 10 19&#10;21 36 25 38 4 2 17 22 28 45 11 23 31 58 43 78 12 21 43 75 69 120 68 120 79&#10;139 106 183 13 21 34 57 46 80 73 132 161 284 177 305 11 13 19 29 19 35 0 7&#10;14 31 31 54 l31 42 2398 0 c1589 0 2401 -3 2405 -10z m2243 -2559 c18 -27 32&#10;-51 32 -55 0 -3 16 -30 35 -60 19 -30 35 -57 35 -59 0 -5 100 -179 110 -192 4&#10;-5 20 -31 34 -57 14 -27 38 -69 52 -95 14 -27 39 -67 55 -91 16 -24 36 -58 45&#10;-75 8 -18 28 -54 44 -82 17 -27 38 -66 48 -85 9 -19 33 -60 53 -90 19 -30 42&#10;-68 51 -85 8 -16 66 -118 128 -225 62 -107 123 -213 135 -236 13 -22 36 -61&#10;51 -85 16 -24 37 -60 47 -79 10 -19 30 -56 45 -81 44 -77 72 -128 72 -134 0&#10;-3 -1253 -5 -2786 -5 l-2785 0 -14 -34 c-8 -18 -31 -60 -52 -92 -22 -33 -44&#10;-70 -51 -84 -7 -14 -26 -47 -42 -75 -16 -27 -37 -66 -47 -85 -10 -19 -36 -62&#10;-57 -94 -21 -33 -41 -67 -44 -75 -4 -9 -50 -90 -102 -179 -96 -165 -122 -210&#10;-169 -293 -14 -26 -46 -81 -71 -123 -25 -42 -56 -97 -70 -121 -14 -25 -47 -82&#10;-74 -127 -49 -84 -76 -132 -120 -212 -13 -24 -35 -61 -48 -82 -27 -44 -38 -63&#10;-106 -183 -26 -45 -57 -99 -69 -120 -68 -113 -114 -193 -142 -246 -12 -22 -32&#10;-56 -44 -77 -37 -60 -90 -151 -107 -183 -9 -16 -34 -59 -55 -95 -20 -36 -49&#10;-85 -63 -110 -14 -25 -36 -62 -49 -82 -12 -21 -23 -40 -23 -44 0 -3 -15 -29&#10;-33 -57 -43 -69 -63 -105 -83 -147 -9 -19 -20 -37 -24 -40 -4 -3 -17 -23 -29&#10;-45 -12 -22 -33 -58 -46 -80 -13 -22 -34 -59 -47 -81 -43 -77 -79 -139 -103&#10;-179 -13 -22 -30 -51 -37 -65 -7 -14 -23 -43 -36 -64 -14 -22 -38 -63 -54 -90&#10;-33 -59 -103 -181 -134 -235 -12 -20 -34 -58 -49 -86 -15 -27 -40 -69 -56 -93&#10;-16 -24 -36 -58 -45 -75 -8 -18 -28 -54 -44 -82 -16 -27 -37 -66 -47 -85 -10&#10;-19 -34 -60 -54 -90 -19 -30 -42 -68 -51 -85 -32 -64 -171 -301 -183 -314 -11&#10;-11 -19 -1 -51 55 -20 38 -45 80 -55 94 -9 14 -28 46 -42 70 -30 56 -125 220&#10;-154 268 -12 21 -32 55 -44 77 -28 54 -76 135 -144 250 -13 22 -36 63 -51 90&#10;-15 28 -42 74 -60 103 -19 29 -34 55 -34 58 0 3 -15 28 -33 57 -18 29 -40 66&#10;-49 82 -23 47 -69 126 -97 170 -14 22 -34 56 -44 75 -10 19 -31 58 -47 85 -16&#10;28 -37 66 -47 85 -10 19 -34 60 -53 90 -45 71 -65 105 -90 157 l-20 42 35 55&#10;c19 30 35 57 35 60 0 3 18 35 40 71 22 36 40 68 40 70 0 3 12 24 27 48 32 50&#10;65 109 88 155 9 18 31 55 50 82 19 27 41 64 50 82 9 18 29 56 45 83 16 28 38&#10;69 50 92 11 23 24 43 28 45 4 2 16 19 26 38 47 86 70 126 176 310 62 107 122&#10;211 132 230 10 19 32 55 48 80 16 25 38 63 50 85 24 46 56 102 124 217 48 82&#10;74 128 119 211 13 23 40 68 60 99 21 31 37 59 37 61 0 2 23 44 51 93 29 49 61&#10;106 73 126 76 132 124 215 143 247 12 20 32 54 43 76 12 22 34 60 50 85 16 25&#10;38 63 50 85 11 22 38 69 59 105 94 162 141 243 141 247 0 2 12 22 27 46 33 52&#10;67 111 90 157 10 19 21 37 24 40 4 3 16 23 28 45 12 22 33 58 46 80 13 22 34&#10;59 47 82 13 23 43 76 68 118 25 43 59 101 75 130 17 29 68 118 115 199 108&#10;188 122 211 153 267 13 25 38 66 53 90 16 24 37 60 47 79 10 19 31 58 47 85&#10;16 28 37 66 47 85 10 19 24 39 31 43 6 4 12 15 12 22 0 13 359 15 2788 15&#10;l2789 0 31 -49z m1066 -2650 c7 -11 -24 -79 -64 -141 -16 -25 -37 -61 -48 -80&#10;-57 -104 -72 -130 -96 -168 -14 -23 -26 -44 -26 -46 0 -2 -28 -51 -62 -108&#10;-33 -56 -71 -121 -83 -143 -12 -22 -44 -78 -71 -124 -27 -46 -61 -104 -76&#10;-130 -15 -25 -34 -60 -42 -78 -9 -17 -29 -51 -45 -75 -16 -24 -41 -65 -56 -93&#10;-15 -27 -37 -66 -49 -86 -11 -20 -37 -65 -57 -100 -39 -70 -165 -288 -238&#10;-412 -25 -43 -56 -97 -69 -120 -28 -51 -62 -111 -123 -214 -25 -43 -52 -89&#10;-60 -103 -7 -14 -28 -48 -46 -77 -18 -28 -33 -54 -33 -57 0 -3 -18 -35 -40&#10;-71 -22 -36 -40 -67 -40 -70 0 -2 -33 -59 -73 -127 -40 -68 -96 -163 -123&#10;-212 -27 -48 -58 -103 -69 -122 -18 -30 -84 -145 -145 -250 -14 -24 -47 -81&#10;-74 -127 -26 -45 -61 -105 -77 -134 -16 -29 -49 -87 -74 -130 -25 -43 -51 -87&#10;-57 -98 -7 -11 -32 -55 -57 -98 -25 -42 -57 -97 -71 -122 -36 -63 -142 -248&#10;-196 -340 -27 -45 -73 -126 -92 -161 l-13 -24 -2554 0 c-1654 0 -2556 3 -2560&#10;10 -3 5 3 22 13 37 26 38 53 82 72 118 39 71 181 319 339 588 25 44 56 98 69&#10;120 13 23 36 65 52 92 16 28 37 66 47 85 10 19 20 37 23 40 5 4 32 49 82 135&#10;9 17 25 46 35 65 10 19 30 53 44 75 28 43 65 109 112 195 16 30 38 67 48 82&#10;11 14 19 28 19 31 0 3 18 34 40 68 22 35 48 82 59 104 11 22 25 47 30 55 5 8&#10;27 44 48 80 21 36 40 67 43 70 5 5 36 60 70 125 24 45 52 95 124 217 27 46 60&#10;103 73 128 14 24 33 57 44 71 10 15 19 29 19 32 0 2 30 56 66 118 100 170 111&#10;191 131 229 10 19 21 37 24 40 4 3 17 25 30 49 13 24 36 65 51 90 15 25 34 60&#10;43 76 9 17 30 53 47 80 32 52 69 118 96 170 8 17 23 41 33 55 9 14 28 46 42&#10;70 13 25 46 83 73 128 27 46 59 103 72 125 37 67 74 130 122 212 66 111 92&#10;156 119 206 13 24 27 46 31 49 4 3 10 15 14 26 4 12 20 40 36 63 l30 41 2544&#10;0 c1479 0 2547 -4 2550 -9z" style="paint-order: stroke markers; fill: url('#gradient-1');"/>
    <path d="M62380 49230 l0 -1270 -32 0 c-31 1 -36 6 -76 78 -90 163 -253 351&#10;-404 464 -207 156 -463 259 -748 300 -111 16 -420 16 -535 0 -541 -76 -988&#10;-357 -1279 -804 -302 -465 -422 -1136 -315 -1768 157 -927 766 -1539 1633&#10;-1641 149 -17 474 -6 601 21 368 78 668 254 890 523 46 55 110 145 142 199 54&#10;91 60 97 91 98 l32 0 0 -365 0 -365 445 0 445 0 0 2900 0 2900 -445 0 -445 0&#10;0 -1270z m-988 -1201 c663 -134 1084 -759 1008 -1494 -62 -604 -441 -1047&#10;-1000 -1170 -113 -25 -353 -30 -478 -11 -471 72 -848 396 -997 856 -58 180&#10;-70 262 -70 480 0 221 15 326 70 496 126 385 417 684 783 803 81 27 223 56&#10;317 65 78 8 271 -5 367 -25z" style="paint-order: stroke markers; fill: url('#gradient-9');"/>
    <path d="M67190 49230 l0 -1270 -32 0 c-31 1 -36 6 -80 83 -147 258 -400 495&#10;-659 616 -479 225 -1124 210 -1616 -37 -181 -92 -386 -250 -521 -404 -268&#10;-304 -442 -718 -503 -1193 -17 -129 -17 -531 0 -660 43 -340 151 -670 296&#10;-910 301 -498 770 -797 1359 -866 149 -17 474 -6 601 21 464 99 822 356 1053&#10;758 33 56 39 62 69 62 l33 0 0 -365 0 -365 443 2 442 3 3 2898 2 2897 -445 0&#10;-445 0 0 -1270z m-1013 -1196 c451 -78 819 -405 967 -857 178 -545 23 -1193&#10;-364 -1527 -240 -206 -521 -310 -840 -310 -566 0 -1026 329 -1205 863 -57 170&#10;-69 254 -69 492 0 244 13 335 75 512 215 607 791 940 1436 827z" style="paint-order: stroke markers; fill: url('#gradient-10');"/>
    <path d="M 38098.67 47725.19 L 38098.67 44700.005 L 40377.122 44702.182 L 42654.467 44705.447 L 42657.789 45138.549 L 42660.003 45570.563 L 40910.753 45570.563 L 39161.504 45570.563 L 39161.504 46506.411 L 39161.504 47442.259 L 40739.15 47442.259 L 42316.796 47442.259 L 42316.796 47806.804 L 42316.796 48171.35 L 40739.15 48171.35 L 39161.504 48171.35 L 39161.504 49031.025 L 39161.504 49890.699 L 40866.469 49890.699 L 42571.433 49890.699 L 42571.433 50320.536 L 42571.433 50750.374 L 40335.051 50750.374 L 38098.67 50750.374 L 38098.67 47725.19 Z" style="paint-order: stroke markers; fill: url('#gradient-11');"/>
    <path d="M 43180.965 47704.223 L 43180.965 44630.002 L 45265.483 44630.002 L 47350.002 44630.002 L 47350.002 45072.336 L 47350.002 45514.669 L 45751.197 45514.669 L 44152.392 45514.669 L 44152.392 46465.687 L 44152.392 47416.705 L 45594.351 47416.705 L 47036.312 47416.705 L 47036.312 47787.16 L 47036.312 48157.614 L 45594.351 48157.614 L 44152.392 48157.614 L 44152.392 49031.225 L 44152.392 49904.834 L 45710.72 49904.834 L 47269.05 49904.834 L 47269.05 50341.639 L 47269.05 50778.444 L 45225.007 50778.444 L 43180.965 50778.444 L 43180.965 47704.223 Z" style="paint-order: stroke markers; fill: url('#gradient-12');"/>
    <path d="M49550 47480 l0 -2780 1373 0 c833 0 1427 4 1512 10 954 70 1584 526&#10;1711 1240 23 128 23 373 1 497 -58 320 -216 595 -453 792 -154 127 -330 221&#10;-518 275 -79 23 -81 24 -81 56 0 30 3 33 60 51 102 34 277 124 361 187 336&#10;249 513 632 491 1062 -35 666 -481 1150 -1222 1325 -263 62 -172 59 -1772 62&#10;l-1463 4 0 -2781z m2680 2026 c329 -66 576 -234 690 -471 53 -108 73 -197 73&#10;-325 0 -167 -43 -302 -137 -433 -146 -206 -406 -341 -719 -376 -60 -7 -379&#10;-11 -847 -11 l-750 0 0 821 0 820 803 -4 c702 -3 813 -6 887 -21z m-18 -2281&#10;c490 -65 828 -323 919 -700 28 -118 23 -303 -11 -410 -105 -329 -388 -556&#10;-810 -648 -91 -20 -129 -21 -932 -24 l-838 -4 0 901 0 900 779 0 c635 0 801&#10;-3 893 -15z" style="paint-order: stroke markers; fill: url('#gradient-13');"/>
    <path d="M54680 47415 c0 -839 4 -1309 11 -1373 45 -412 200 -767 448 -1024&#10;204 -213 419 -336 711 -405 129 -30 416 -43 551 -24 333 47 594 182 831 429&#10;85 89 258 326 258 353 0 5 16 9 35 9 l35 0 0 -340 0 -340 450 0 450 0 0 1995&#10;0 1995 -450 0 -450 0 0 -1194 c0 -1280 1 -1265 -51 -1438 -53 -179 -188 -379&#10;-333 -495 -101 -80 -271 -165 -391 -195 -131 -33 -383 -33 -503 0 -368 100&#10;-607 381 -688 812 -17 88 -19 189 -22 1303 l-3 1207 -444 0 -445 0 0 -1275z" style="paint-order: stroke markers; fill: url('#gradient-14');"/>
    <path d="M68448 48653 c11 -21 447 -923 971 -2004 l952 -1965 -47 -105 c-218&#10;-493 -408 -747 -646 -863 -119 -58 -183 -71 -348 -70 -152 1 -269 17 -440 60&#10;-52 13 -96 24 -97 24 -2 0 -2 -161 -1 -357 l3 -358 108 -27 c241 -62 572 -91&#10;766 -69 572 67 977 485 1369 1411 38 91 435 1103 882 2250 447 1147 814 2091&#10;817 2098 4 9 -91 12 -455 12 l-460 0 -533 -1425 -534 -1425 -35 0 -36 0 -644&#10;1425 -643 1425 -484 0 -483 0 18 -37z" style="paint-order: stroke markers; fill: url('#gradient-15');"/>
  </g>
</svg>